<svg width="153" height="37" viewBox="0 0 153 37" fill="none" xmlns="http://www.w3.org/2000/svg">
<g clip-path="url(#clip0_1650_776)">
<path fill-rule="evenodd" clip-rule="evenodd" d="M57.3778 20.0329V13.0952H60.7554V20.3088C60.7554 21.027 60.976 21.6027 61.4179 22.0369C61.8599 22.4709 62.4229 22.6883 63.1068 22.6883C63.7735 22.6883 64.3241 22.4667 64.7579 22.0243C65.1914 21.582 65.4083 21.0098 65.4083 20.3088V13.0952H68.7856V20.0329C68.7856 21.7361 68.2476 23.1223 67.172 24.1905C66.0962 25.2595 64.7413 25.7936 63.1068 25.7936C61.4388 25.7936 60.0675 25.2636 58.9917 24.2029C57.9156 23.1427 57.3778 21.753 57.3778 20.0329Z" fill="white"/>
<path fill-rule="evenodd" clip-rule="evenodd" d="M79.9651 19.3066C79.9651 18.2883 79.6654 17.4619 79.0646 16.8267C78.4646 16.193 77.6969 15.8755 76.7634 15.8755C75.8629 15.8755 75.116 16.1761 74.5243 16.777C73.9319 17.3782 73.6362 18.2129 73.6362 19.2816C73.6362 20.3504 73.9319 21.1894 74.5243 21.7981C75.116 22.4084 75.8629 22.7128 76.7634 22.7128C77.6802 22.7128 78.4435 22.3958 79.0523 21.7608C79.6611 21.1263 79.9651 20.3085 79.9651 19.3066ZM81.6787 14.6607C82.821 15.8878 83.3926 17.4281 83.3926 19.2816C83.3926 21.1349 82.821 22.6835 81.6787 23.9275C80.5367 25.1713 79.1064 25.7934 77.3885 25.7934C75.8374 25.7934 74.6032 25.2926 73.686 24.2907V30.0007H70.309V13.095H73.411V14.6484C74.2616 13.4293 75.5873 12.8198 77.3885 12.8198C79.1064 12.8198 80.5367 13.4331 81.6787 14.6607Z" fill="white"/>
<path fill-rule="evenodd" clip-rule="evenodd" d="M88.0188 18.0538H93.6478C93.6309 17.3026 93.3679 16.6974 92.8593 16.2381C92.3503 15.7792 91.7208 15.5497 90.9707 15.5497C90.2536 15.5497 89.6279 15.7749 89.0944 16.2258C88.5604 16.6762 88.2019 17.2862 88.0188 18.0538ZM96.6991 20.4331H88.0188C88.2188 21.2184 88.6226 21.8236 89.2319 22.2491C89.8402 22.6752 90.5954 22.8881 91.4961 22.8881C92.713 22.8881 93.8639 22.4705 94.9483 21.6353L96.349 23.9399C94.8649 25.1756 93.2135 25.7932 91.3956 25.7932C89.4944 25.8262 87.881 25.2043 86.5551 23.9273C85.2291 22.6495 84.5828 21.1095 84.6165 19.3064C84.5828 17.5197 85.208 15.9837 86.4926 14.6981C87.7765 13.4122 89.3107 12.7863 91.0959 12.8196C92.7971 12.8196 94.1936 13.3704 95.2858 14.4726C96.3782 15.5747 96.9246 16.9437 96.9246 18.5804C96.9246 19.1808 96.8493 19.7994 96.6991 20.4331Z" fill="white"/>
<path fill-rule="evenodd" clip-rule="evenodd" d="M106.001 13.0946V16.0754H105.1C104.066 16.0754 103.253 16.351 102.662 16.902C102.069 17.4528 101.773 18.2544 101.773 19.3063V25.4924H98.3961V13.0946H101.498V14.5724C102.365 13.4875 103.5 12.9448 104.9 12.9448C105.318 12.9448 105.685 12.9948 106.001 13.0946Z" fill="white"/>
<path fill-rule="evenodd" clip-rule="evenodd" d="M115.578 25.4926H118.956V6.40771H115.578V25.4926ZM113.966 6.40771V9.43839H113.152C112.368 9.43839 111.797 9.58869 111.439 9.88929C111.08 10.1894 110.901 10.6821 110.901 11.3668V13.0947H113.966V15.9501H110.901V25.4926H107.523V11.0665C107.523 9.53044 107.94 8.37016 108.775 7.58488C109.608 6.80061 110.784 6.40771 112.302 6.40771H113.966Z" fill="white"/>
<path fill-rule="evenodd" clip-rule="evenodd" d="M120.601 20.0329V13.0952H123.979V20.3088C123.979 21.027 124.199 21.6027 124.641 22.0369C125.083 22.4709 125.646 22.6883 126.33 22.6883C126.997 22.6883 127.547 22.4667 127.981 22.0243C128.415 21.582 128.631 21.0098 128.631 20.3088V13.0952H132.009V20.0329C132.009 21.7361 131.471 23.1223 130.395 24.1905C129.319 25.2595 127.964 25.7936 126.33 25.7936C124.662 25.7936 123.29 25.2636 122.215 24.2029C121.139 23.1427 120.601 21.753 120.601 20.0329Z" fill="white"/>
<path fill-rule="evenodd" clip-rule="evenodd" d="M133.654 25.493H137.032V13.0952H133.654V25.493Z" fill="white"/>
<path fill-rule="evenodd" clip-rule="evenodd" d="M147.698 21.8105C148.29 21.2096 148.586 20.3751 148.586 19.3064C148.586 18.2376 148.286 17.3986 147.686 16.7891C147.085 16.1796 146.343 15.8752 145.459 15.8752C144.541 15.8752 143.779 16.1927 143.17 16.8265C142.561 17.4617 142.257 18.2795 142.257 19.2814C142.257 20.3002 142.557 21.1261 143.158 21.7606C143.758 22.3956 144.525 22.7125 145.459 22.7125C146.36 22.7125 147.106 22.4119 147.698 21.8105ZM148.536 6.40771H151.913V25.4926H148.811V23.9646C147.961 25.1836 146.635 25.7931 144.834 25.7931C143.099 25.7931 141.665 25.1793 140.531 23.9522C139.396 22.7252 138.83 21.1765 138.83 19.3064C138.83 17.4365 139.396 15.8876 140.531 14.6605C141.665 13.4329 143.099 12.8196 144.834 12.8196C146.401 12.8196 147.635 13.3124 148.536 14.2974V6.40771Z" fill="white"/>
<path fill-rule="evenodd" clip-rule="evenodd" d="M52.0949 16.0006L50.2186 15.1744C49.4845 14.8408 48.9803 14.5442 48.7052 14.2847C48.4301 14.0265 48.2924 13.6883 48.2924 13.271C48.2924 13.2089 48.3042 13.154 48.3102 13.0952H44.877C44.8732 13.1789 44.8652 13.2604 44.8652 13.3459C44.8652 15.333 46.1992 16.9192 48.8679 18.1047L50.6437 18.9059C51.4777 19.2905 52.0362 19.6117 52.3201 19.8702C52.6037 20.129 52.7455 20.4929 52.7455 20.9594C52.7455 21.5278 52.5367 21.9739 52.1201 22.2997C51.7029 22.6253 51.1274 22.7879 50.3939 22.7879C48.8591 22.7879 47.5082 21.9863 46.341 20.3837L44.0145 22.1366C44.6649 23.2726 45.5445 24.1653 46.6538 24.8167C47.7626 25.4681 49.0095 25.7936 50.3939 25.7936C52.078 25.7936 53.4624 25.3387 54.5465 24.4286C55.6304 23.5185 56.1727 22.3206 56.1727 20.8346C56.1727 19.7323 55.8473 18.8103 55.1971 18.0672C54.5465 17.3242 53.5123 16.6355 52.0949 16.0006Z" fill="white"/>
<path fill-rule="evenodd" clip-rule="evenodd" d="M56.1728 8.17578H51.2592V10.6355H53.7161V13.095H56.1728V8.17578Z" fill="white"/>
<path fill-rule="evenodd" clip-rule="evenodd" d="M137.032 13.0951H140.755V9.36768H137.032V13.0951Z" fill="white"/>
<path fill-rule="evenodd" clip-rule="evenodd" d="M28.6165 21.3399H22.0521V14.7679H15.4873V8.19562H28.6165V21.3399ZM8.92285 27.9119H15.4873V21.3399H8.92285V27.9119ZM0.779785 3.98021V32.1278C0.779785 34.3018 2.54024 36.0646 4.71202 36.0646H32.8274C34.9991 36.0646 36.7596 34.3018 36.7596 32.1278V3.98021C36.7596 1.80593 34.9991 0.043457 32.8274 0.043457H4.71202C2.54024 0.043457 0.779785 1.80593 0.779785 3.98021Z" fill="white"/>
</g>
<defs>
<clipPath id="clip0_1650_776">
<rect width="151.436" height="36.3136" fill="white" transform="translate(0.779785)"/>
</clipPath>
</defs>
</svg>
