<svg width="240" height="18" viewBox="0 0 240 18" fill="none" xmlns="http://www.w3.org/2000/svg">
<g clip-path="url(#clip0_1650_793)">
<path fill-rule="evenodd" clip-rule="evenodd" d="M5.66904 5.5705C5.75662 5.15095 6.13728 4.83159 6.5862 4.83159H10.298C10.7943 4.83159 11.0153 4.61267 11.3103 4.18784L12.946 1.25367C13.1001 0.977385 13.4016 0.804688 13.7299 0.804688H27.3895C27.7413 0.804688 28.0339 1.06333 28.0621 1.39713C28.6115 7.90237 29.3081 12.3118 33.7184 16.3031C34.1811 16.7219 33.8852 17.509 33.2466 17.509H0.913504C0.274088 17.509 -0.0223611 16.7198 0.440985 16.3004C3.59805 13.4428 4.86292 10.3166 5.53105 6.27048C5.56451 6.06787 5.60548 5.87303 5.64661 5.67744C5.6541 5.64184 5.66159 5.60621 5.66904 5.5705ZM46.3508 17.4171C45.9831 17.4171 45.685 17.133 45.685 16.7827V5.43907C45.685 5.08873 45.387 4.80472 45.0194 4.80472H38.8513C38.4837 4.80472 38.1856 4.52072 38.1856 4.17039V1.53102C38.1856 1.18068 38.4837 0.896678 38.8513 0.896678H58.5383C59.0301 0.896678 59.3522 1.38738 59.1368 1.80873L57.788 4.4481C57.6766 4.66628 57.4442 4.80472 57.1895 4.80472H51.8581C51.4904 4.80472 51.1924 5.08873 51.1924 5.43906V16.7827C51.1924 17.133 50.8944 17.4171 50.5267 17.4171H46.3508ZM70.2295 10.6668C70.7288 10.6668 71.0504 10.1625 70.8204 9.7402L68.5538 5.57945C68.303 5.1189 67.6095 5.12458 67.367 5.58917L65.1949 9.74992C64.9748 10.1716 65.2967 10.6668 65.7909 10.6668H70.2295ZM75.3861 17.4171C75.1373 17.4171 74.9092 17.2848 74.7949 17.0743L73.5268 14.7399C73.4124 14.5294 73.1844 14.3972 72.9356 14.3972H63.2113C62.9444 14.3972 62.7033 14.5492 62.5988 14.7832L61.5951 17.031C61.4906 17.2651 61.2495 17.4171 60.9826 17.4171H56.9413C56.4475 17.4171 56.1256 16.9227 56.3448 16.5011L64.2751 1.2494C64.3874 1.03336 64.6186 0.896678 64.8716 0.896678H71.1383C71.3832 0.896678 71.6084 1.0249 71.7244 1.23047L80.3356 16.4822C80.5741 16.9048 80.253 17.4171 79.7493 17.4171H75.3861ZM82.0449 16.7827C82.0449 17.133 82.3429 17.4171 82.7106 17.4171H97.1139C101.926 17.4171 104.332 15.8331 104.332 12.6652V12.3543C104.332 11.6734 104.199 11.0665 103.934 10.5336C103.668 10.0007 103.317 9.58616 102.879 9.29009C102.442 8.97923 102.043 8.74237 101.684 8.57954C101.59 8.53699 101.496 8.49697 101.401 8.45948C101.181 8.37266 101.169 7.99684 101.379 7.8912C101.645 7.75797 101.942 7.57293 102.27 7.33607C102.598 7.08442 102.856 6.75875 103.043 6.35906C103.246 5.94457 103.348 5.48567 103.348 4.98236V4.6715C103.348 3.56126 102.863 2.65826 101.895 1.96251C100.926 1.25196 99.2857 0.896678 96.9733 0.896678H82.7106C82.3429 0.896678 82.0449 1.18068 82.0449 1.53102V16.7827ZM88.1711 4.38284H96.0359C97.3015 4.38284 97.9343 4.81953 97.9343 5.69292V5.73733C97.9343 6.62552 97.3015 7.06962 96.0359 7.06962H88.1711C87.8034 7.06962 87.5053 6.78561 87.5053 6.43527V5.01717C87.5053 4.66684 87.8034 4.38284 88.1711 4.38284ZM88.1711 10.578H96.5047C97.942 10.578 98.6607 11.0887 98.6607 12.1101V12.1989C98.6607 12.6282 98.5045 13.0057 98.1921 13.3313C97.8796 13.6571 97.3171 13.8199 96.5047 13.8199H88.1711C87.8034 13.8199 87.5053 13.5359 87.5053 13.1856V11.2123C87.5053 10.862 87.8034 10.578 88.1711 10.578ZM106.519 1.53102C106.519 1.18068 106.818 0.896678 107.185 0.896678H111.315C111.682 0.896678 111.98 1.18068 111.98 1.53102V12.6749C111.98 13.0251 112.278 13.3092 112.645 13.3092H122.764C123.133 13.3092 123.431 13.5932 123.431 13.9435V16.7827C123.431 17.133 123.133 17.4171 122.764 17.4171H107.185C106.818 17.4171 106.519 17.133 106.519 16.7827V1.53102ZM126.776 0.896678C126.408 0.896678 126.11 1.18068 126.11 1.53102V16.7827C126.11 17.133 126.408 17.4171 126.776 17.4171H144.052C144.419 17.4171 144.717 17.133 144.717 16.7827V14.21C144.717 13.8596 144.419 13.5756 144.052 13.5756H132.166C131.798 13.5756 131.5 13.2917 131.5 12.9413V11.501C131.5 11.1506 131.798 10.8666 132.166 10.8666H143.514C143.881 10.8666 144.179 10.5826 144.179 10.2323V7.72616C144.179 7.37583 143.881 7.09182 143.514 7.09182H132.166C131.798 7.09182 131.5 6.80782 131.5 6.45748V5.28363C131.5 4.9333 131.798 4.64929 132.166 4.64929H143.818C144.185 4.64929 144.483 4.36529 144.483 4.01495V1.53102C144.483 1.18068 144.185 0.896678 143.818 0.896678H126.776ZM147.204 1.53102C147.204 1.18068 147.502 0.896678 147.87 0.896678H151.999C152.367 0.896678 152.665 1.18068 152.665 1.53102V12.6749C152.665 13.0251 152.963 13.3092 153.33 13.3092H163.264C163.758 13.3092 164.08 13.8036 163.861 14.2253L162.383 17.0645C162.27 17.2804 162.039 17.4171 161.787 17.4171H147.87C147.502 17.4171 147.204 17.133 147.204 16.7827V1.53102ZM179.935 9.7402C180.166 10.1625 179.843 10.6668 179.344 10.6668H174.906C174.412 10.6668 174.09 10.1716 174.31 9.74993L176.482 5.58917C176.725 5.12458 177.418 5.1189 177.669 5.57945L179.935 9.7402ZM183.91 17.0743C184.024 17.2848 184.252 17.4171 184.501 17.4171H188.864C189.368 17.4171 189.689 16.9048 189.451 16.4822L180.84 1.23047C180.724 1.0249 180.498 0.896678 180.253 0.896678H173.982C173.732 0.896678 173.502 1.03075 173.389 1.2436L165.254 16.4953C165.028 16.9173 165.35 17.4171 165.847 17.4171H169.903C170.156 17.4171 170.387 17.2804 170.499 17.0643L171.703 14.7499C171.815 14.5339 172.047 14.3972 172.299 14.3972H182.051C182.299 14.3972 182.528 14.5294 182.642 14.7399L183.91 17.0743ZM190.938 1.53102C190.938 1.18068 191.236 0.896678 191.604 0.896678H196.76C196.933 0.896678 197.101 0.961734 197.225 1.07789L207.032 10.2322C207.453 10.6255 208.164 10.3411 208.164 9.77908V1.53102C208.164 1.18068 208.462 0.896678 208.829 0.896678H212.887C213.256 0.896678 213.554 1.18068 213.554 1.53102V16.7827C213.554 17.133 213.256 17.4171 212.887 17.4171H208.433C208.261 17.4171 208.093 17.3528 207.97 17.2378L197.458 7.51469C197.036 7.12423 196.329 7.40927 196.329 7.96986V16.7827C196.329 17.133 196.031 17.4171 195.662 17.4171H191.604C191.236 17.4171 190.938 17.133 190.938 16.7827V1.53102ZM216.228 16.7827C216.228 17.133 216.526 17.4171 216.893 17.4171H227.361C229.314 17.4171 231.041 17.2468 232.54 16.9064C234.04 16.5659 235.227 16.1366 236.102 15.6185C236.977 15.1003 237.688 14.4712 238.235 13.7311C238.798 12.9909 239.173 12.2803 239.36 11.5994C239.547 10.9036 239.641 10.1635 239.641 9.37892V8.71277C239.641 8.04663 239.563 7.42489 239.407 6.84756C239.266 6.25544 239.032 5.65591 238.703 5.04897C238.375 4.44204 237.9 3.90173 237.274 3.42802C236.649 2.93952 235.9 2.50282 235.025 2.11795C234.15 1.71826 233.056 1.41479 231.743 1.20755C230.431 1.0003 228.962 0.896678 227.338 0.896678H216.893C216.526 0.896678 216.228 1.18068 216.228 1.53102V16.7827ZM221.688 5.43906C221.688 5.08873 221.986 4.80472 222.354 4.80472H227.359C232.031 4.80472 234.367 6.21843 234.367 9.04585V9.17907C234.367 12.0213 232.031 13.4424 227.359 13.4424H222.354C221.986 13.4424 221.688 13.1584 221.688 12.8081V5.43906Z" fill="white"/>
</g>
<defs>
<clipPath id="clip0_1650_793">
<rect width="239.67" height="16.7043" fill="white" transform="translate(0.215454 0.804688)"/>
</clipPath>
</defs>
</svg>
