<svg width="174" height="37" viewBox="0 0 174 37" fill="none" xmlns="http://www.w3.org/2000/svg">
<g clip-path="url(#clip0_1650_758)">
<path d="M30.5474 11.0937C29.8006 10.6331 28.8296 10.6331 28.0081 11.0937L22.1823 14.6252L18.2239 16.9284L12.3982 20.46C11.6514 20.9206 10.6804 20.9206 9.85883 20.46L5.22817 17.6962C4.48129 17.2356 3.95847 16.3911 3.95847 15.4697V10.0189C3.95847 9.0976 4.40659 8.25311 5.22817 7.79247L9.78414 5.1054C10.531 4.64477 11.5019 4.64477 12.3235 5.1054L16.8795 7.79247C17.6264 8.25311 18.1492 9.0976 18.1492 10.0189V13.5504L22.1076 11.1705V7.63892C22.1076 6.71764 21.6596 5.87314 20.838 5.4125L12.3982 0.345479C11.6514 -0.11516 10.6804 -0.11516 9.85883 0.345479L1.2697 5.4125C0.448129 5.87314 0 6.71764 0 7.63892V17.8497C0 18.771 0.448129 19.6155 1.2697 20.0761L9.85883 25.1431C10.6057 25.6038 11.5767 25.6038 12.3982 25.1431L18.2239 21.6883L22.1823 19.3084L28.0081 15.8536C28.7549 15.393 29.7259 15.393 30.5474 15.8536L35.1034 18.5407C35.8503 19.0013 36.3731 19.8459 36.3731 20.7671V26.218C36.3731 27.1392 35.925 27.9838 35.1034 28.4444L30.5474 31.2083C29.8006 31.6689 28.8296 31.6689 28.0081 31.2083L23.4521 28.5212C22.7051 28.0606 22.1823 27.2161 22.1823 26.2947V22.7632L18.2239 25.1431V28.6747C18.2239 29.596 18.672 30.4405 19.4936 30.9011L28.0827 35.9682C28.8296 36.4288 29.8006 36.4288 30.6221 35.9682L39.2113 30.9011C39.9581 30.4405 40.4809 29.596 40.4809 28.6747V18.4639C40.4809 17.5427 40.0328 16.6982 39.2113 16.2375L30.5474 11.0937Z" fill="white"/>
<path d="M56.2508 33.0484V24.5714C57.1616 25.7289 58.8145 26.3758 60.7374 26.3758C65.6288 26.3758 68.9348 22.8692 68.9348 17.5243C68.9348 12.1794 65.8987 8.67285 61.1422 8.67285C58.9495 8.67285 57.2628 9.48991 56.2508 10.8176V8.9452H51.5617V33.0484H56.2508ZM60.164 22.2905C57.6339 22.2905 55.9809 20.384 55.9809 17.5243C55.9809 14.6306 57.6339 12.7241 60.164 12.7241C62.6265 12.7241 64.3132 14.6306 64.3132 17.5243C64.3132 20.384 62.6265 22.2905 60.164 22.2905Z" fill="white"/>
<path d="M79.5823 26.3758C84.8111 26.3758 88.5557 22.6309 88.5557 17.5243C88.5557 12.4177 84.8111 8.67285 79.5823 8.67285C74.3536 8.67285 70.6091 12.4177 70.6091 17.5243C70.6091 22.6309 74.3536 26.3758 79.5823 26.3758ZM79.5823 22.2905C77.0523 22.2905 75.3318 20.35 75.3318 17.5243C75.3318 14.6646 77.0523 12.7241 79.5823 12.7241C82.1125 12.7241 83.8329 14.6646 83.8329 17.5243C83.8329 20.35 82.1125 22.2905 79.5823 22.2905Z" fill="white"/>
<path d="M96.0794 26.1036V1.48975H91.3904V26.1036H96.0794Z" fill="white"/>
<path d="M110.175 8.94531L106.633 20.0096L103.057 8.94531H98.2665L104.44 25.9673L101.944 33.0485H106.43L108.825 26.0354L114.999 8.94531H110.175Z" fill="white"/>
<path d="M128.168 10.6474C127.223 9.45586 125.537 8.67285 123.479 8.67285C118.519 8.67285 115.518 12.1794 115.518 17.5243C115.518 22.8692 118.519 26.3758 123.546 26.3758C125.537 26.3758 127.324 25.6268 128.202 24.3672V26.6141C128.202 28.2141 127.156 29.3376 125.739 29.3376H117.912V33.0484H126.481C130.327 33.0484 132.891 30.6993 132.891 27.1247V8.9452H128.168V10.6474ZM124.288 22.2905C121.792 22.2905 120.139 20.418 120.139 17.5243C120.139 14.6306 121.792 12.7241 124.288 12.7241C126.818 12.7241 128.472 14.6306 128.472 17.5243C128.472 20.418 126.818 22.2905 124.288 22.2905Z" fill="white"/>
<path d="M144.712 26.3758C149.941 26.3758 153.685 22.6309 153.685 17.5243C153.685 12.4177 149.941 8.67285 144.712 8.67285C139.483 8.67285 135.738 12.4177 135.738 17.5243C135.738 22.6309 139.483 26.3758 144.712 26.3758ZM144.712 22.2905C142.181 22.2905 140.461 20.35 140.461 17.5243C140.461 14.6646 142.181 12.7241 144.712 12.7241C147.242 12.7241 148.962 14.6646 148.962 17.5243C148.962 20.35 147.242 22.2905 144.712 22.2905Z" fill="white"/>
<path d="M160.973 26.1034V16.7072C160.973 14.4944 162.424 12.8943 164.481 12.8943C166.437 12.8943 167.753 14.3923 167.753 16.4689V26.1034H172.476V15.4136C172.476 11.4645 169.979 8.67285 166.133 8.67285C163.806 8.67285 161.917 9.66013 160.973 11.3283V8.9452H156.25V26.1034H160.973Z" fill="white"/>
</g>
<defs>
<clipPath id="clip0_1650_758">
<rect width="173.368" height="36.3136" fill="white"/>
</clipPath>
</defs>
</svg>
