<svg width="164" height="23" viewBox="0 0 164 23" fill="none" xmlns="http://www.w3.org/2000/svg">
<g clip-path="url(#clip0_1650_767)">
<path d="M8.61968 22.0509C6.19523 22.0509 4.20882 21.486 2.66043 20.3562C1.13241 19.2063 0.368408 17.5722 0.368408 15.4539C0.368408 15.01 0.419342 14.4653 0.52121 13.8197C0.786065 12.3672 1.16298 10.6222 1.65194 8.58457C3.03734 3.03666 6.61289 0.262695 12.3786 0.262695C13.9474 0.262695 15.3531 0.524961 16.5959 1.04949C17.8387 1.55385 18.8166 2.32047 19.5297 3.34935C20.2427 4.35807 20.5993 5.56852 20.5993 6.98072C20.5993 7.40438 20.5484 7.939 20.4466 8.58457C20.1409 10.3801 19.7742 12.1252 19.3464 13.8197C18.6332 16.5837 17.4007 18.6515 15.6486 20.0234C13.8964 21.375 11.5535 22.0509 8.61968 22.0509ZM9.04753 17.6932C10.1884 17.6932 11.1562 17.3603 11.9508 16.6946C12.7657 16.0288 13.3463 15.01 13.6926 13.6382C14.1613 11.7418 14.5178 10.0876 14.7623 8.67535C14.8438 8.25169 14.8846 7.81795 14.8846 7.37412C14.8846 5.53826 13.9167 4.62033 11.9813 4.62033C10.8404 4.62033 9.86246 4.95321 9.04753 5.61896C8.25295 6.28471 7.6825 7.3035 7.33615 8.67535C6.96942 10.027 6.60271 11.6813 6.23598 13.6382C6.15448 14.0417 6.11374 14.4653 6.11374 14.9092C6.11374 16.7652 7.09167 17.6932 9.04753 17.6932Z" fill="white"/>
<path d="M23.7003 21.7484C23.4761 21.7484 23.3029 21.6778 23.1807 21.5366C23.0789 21.3751 23.0482 21.1936 23.089 20.9919L27.3063 1.32196C27.3471 1.10005 27.4591 0.918479 27.6425 0.77726C27.8258 0.63604 28.0194 0.56543 28.2232 0.56543H36.3521C38.6136 0.56543 40.4268 1.02944 41.7919 1.95746C43.1773 2.88547 43.87 4.22706 43.87 5.98222C43.87 6.48657 43.8089 7.0111 43.6867 7.5558C43.1773 9.87584 42.1484 11.5906 40.6 12.7003C39.072 13.8098 36.9735 14.3646 34.3046 14.3646H30.179L28.7732 20.9919C28.7325 21.2138 28.6204 21.3953 28.437 21.5366C28.2537 21.6778 28.0602 21.7484 27.8563 21.7484H23.7003ZM34.5185 10.1885C35.3743 10.1885 36.1179 9.95655 36.7494 9.49253C37.4014 9.02853 37.8292 8.36277 38.033 7.49529C38.0941 7.15232 38.1247 6.84971 38.1247 6.58744C38.1247 6.00239 37.9515 5.55856 37.6051 5.25594C37.2588 4.93316 36.6679 4.77176 35.8327 4.77176H32.1654L31.0041 10.1885H34.5185Z" fill="white"/>
<path d="M50.7556 21.7484C50.5315 21.7484 50.3583 21.6778 50.2361 21.5366C50.1139 21.3751 50.0731 21.1936 50.1139 20.9919L53.5061 5.31647H48.0663C47.8422 5.31647 47.669 5.24585 47.5468 5.10464C47.4449 4.94325 47.4144 4.76167 47.4552 4.55993L48.158 1.32196C48.1988 1.10005 48.3108 0.918479 48.4941 0.77726C48.6775 0.63604 48.8711 0.56543 49.0748 0.56543H65.5163C65.7403 0.56543 65.9135 0.63604 66.0358 0.77726C66.1173 0.898305 66.158 1.01935 66.158 1.14039C66.158 1.20092 66.1478 1.26144 66.1274 1.32196L65.4245 4.55993C65.3838 4.78185 65.2718 4.96342 65.0883 5.10464C64.9254 5.24585 64.7319 5.31647 64.5078 5.31647H59.0985L55.7063 20.9919C55.6656 21.2138 55.5536 21.3953 55.3703 21.5366C55.1868 21.6778 54.9933 21.7484 54.7896 21.7484H50.7556Z" fill="white"/>
<path d="M66.9375 21.7484C66.7134 21.7484 66.5403 21.6778 66.4181 21.5366C66.2957 21.3751 66.255 21.1936 66.2957 20.9919L70.5437 1.32196C70.5844 1.10005 70.6965 0.918479 70.8799 0.77726C71.0632 0.63604 71.2567 0.56543 71.4605 0.56543H75.5861C75.8102 0.56543 75.9834 0.63604 76.1056 0.77726C76.1871 0.898305 76.2279 1.01935 76.2279 1.14039C76.2279 1.20092 76.2176 1.26144 76.1973 1.32196L71.9799 20.9919C71.9392 21.2138 71.8272 21.3953 71.6439 21.5366C71.4605 21.6778 71.2669 21.7484 71.0632 21.7484H66.9375Z" fill="white"/>
<path d="M78.5742 21.7484C78.3501 21.7484 78.1769 21.6778 78.0546 21.5366C77.9324 21.3953 77.8916 21.2138 77.9324 20.9919L82.1497 1.32196C82.1905 1.10005 82.3025 0.918479 82.4858 0.77726C82.6693 0.63604 82.873 0.56543 83.0971 0.56543H86.3975C86.8866 0.56543 87.2023 0.787346 87.3449 1.23118L90.676 10.7635L98.1022 1.23118C98.204 1.06979 98.3466 0.918479 98.53 0.77726C98.7337 0.63604 98.9783 0.56543 99.2635 0.56543H102.595C102.819 0.56543 102.992 0.63604 103.114 0.77726C103.195 0.898305 103.236 1.01935 103.236 1.14039C103.236 1.20092 103.226 1.26144 103.206 1.32196L98.9884 20.9919C98.9477 21.2138 98.8355 21.3953 98.6522 21.5366C98.4689 21.6778 98.2754 21.7484 98.0715 21.7484H94.3738C94.1497 21.7484 93.9766 21.6778 93.8542 21.5366C93.7524 21.3751 93.7219 21.1936 93.7626 20.9919L96.1463 9.82541L91.4706 15.9685C91.2669 16.1904 91.0733 16.3619 90.8899 16.4829C90.7066 16.604 90.4926 16.6645 90.2482 16.6645H88.6591C88.2312 16.6645 87.9358 16.4325 87.7728 15.9685L85.603 9.55306L83.1582 20.9919C83.1174 21.2138 83.0053 21.3953 82.822 21.5366C82.6386 21.6778 82.4451 21.7484 82.2413 21.7484H78.5742Z" fill="white"/>
<path d="M105.549 21.7484C105.325 21.7484 105.152 21.6778 105.03 21.5366C104.907 21.3751 104.867 21.1936 104.907 20.9919L109.155 1.32196C109.196 1.10005 109.308 0.918479 109.491 0.77726C109.674 0.63604 109.868 0.56543 110.072 0.56543H114.198C114.422 0.56543 114.595 0.63604 114.717 0.77726C114.799 0.898305 114.839 1.01935 114.839 1.14039C114.839 1.20092 114.829 1.26144 114.809 1.32196L110.592 20.9919C110.551 21.2138 110.439 21.3953 110.255 21.5366C110.072 21.6778 109.878 21.7484 109.674 21.7484H105.549Z" fill="white"/>
<path d="M124.734 22.0509C122.941 22.0509 121.403 21.8088 120.12 21.3246C118.856 20.8404 117.898 20.1949 117.247 19.3879C116.615 18.5809 116.299 17.6831 116.299 16.6946C116.299 16.5332 116.32 16.2912 116.36 15.9684C116.401 15.7868 116.483 15.6355 116.605 15.5144C116.748 15.3934 116.91 15.3328 117.094 15.3328H121.005C121.25 15.3328 121.433 15.3732 121.555 15.4539C121.698 15.5346 121.841 15.6758 121.984 15.8775C122.126 16.4021 122.452 16.8359 122.962 17.1788C123.491 17.5218 124.215 17.6932 125.131 17.6932C126.292 17.6932 127.23 17.5116 127.943 17.1485C128.656 16.7854 129.084 16.2912 129.226 15.6657C129.247 15.585 129.256 15.464 129.256 15.3026C129.256 14.7983 128.942 14.4049 128.31 14.1224C127.678 13.8197 126.517 13.4668 124.826 13.0633C122.85 12.6396 121.352 12.0041 120.333 11.1568C119.314 10.2893 118.806 9.15954 118.806 7.76752C118.806 7.28333 118.867 6.78906 118.989 6.28471C119.396 4.40851 120.405 2.93578 122.014 1.86655C123.644 0.797313 125.742 0.262695 128.31 0.262695C129.858 0.262695 131.234 0.535048 132.435 1.07975C133.637 1.62446 134.564 2.32047 135.217 3.16779C135.889 3.99494 136.224 4.82208 136.224 5.64923C136.224 5.89131 136.215 6.06279 136.194 6.16367C136.153 6.34523 136.062 6.49654 135.919 6.61758C135.797 6.73864 135.644 6.79915 135.461 6.79915H131.366C130.918 6.79915 130.612 6.62767 130.449 6.28471C130.429 5.8207 130.184 5.4273 129.715 5.10452C129.247 4.78173 128.635 4.62033 127.882 4.62033C126.985 4.62033 126.242 4.78173 125.651 5.10452C125.081 5.4273 124.723 5.9014 124.582 6.5268C124.561 6.62767 124.55 6.7588 124.55 6.9202C124.55 7.40438 124.836 7.80787 125.406 8.13065C125.997 8.43327 127.026 8.74597 128.493 9.06875C130.775 9.51259 132.435 10.1481 133.475 10.9752C134.534 11.8024 135.063 12.9019 135.063 14.2737C135.063 14.7377 135.002 15.2421 134.88 15.7868C134.432 17.8446 133.342 19.4081 131.61 20.4773C129.899 21.5263 127.607 22.0509 124.734 22.0509Z" fill="white"/>
<path d="M139.118 21.7484C138.893 21.7484 138.72 21.6778 138.598 21.5366C138.476 21.3953 138.435 21.2138 138.476 20.9919L142.693 1.32196C142.733 1.10005 142.846 0.918479 143.03 0.77726C143.213 0.63604 143.417 0.56543 143.641 0.56543H146.941C147.43 0.56543 147.746 0.787346 147.889 1.23118L151.22 10.7635L158.645 1.23118C158.748 1.06979 158.891 0.918479 159.074 0.77726C159.277 0.63604 159.521 0.56543 159.807 0.56543H163.138C163.363 0.56543 163.536 0.63604 163.658 0.77726C163.739 0.898305 163.78 1.01935 163.78 1.14039C163.78 1.20092 163.77 1.26144 163.749 1.32196L159.532 20.9919C159.491 21.2138 159.379 21.3953 159.196 21.5366C159.013 21.6778 158.819 21.7484 158.615 21.7484H154.917C154.693 21.7484 154.52 21.6778 154.398 21.5366C154.295 21.3751 154.265 21.1936 154.306 20.9919L156.69 9.82541L152.014 15.9685C151.81 16.1904 151.617 16.3619 151.434 16.4829C151.25 16.604 151.036 16.6645 150.792 16.6645H149.202C148.774 16.6645 148.479 16.4325 148.317 15.9685L146.147 9.55306L143.702 20.9919C143.661 21.2138 143.548 21.3953 143.365 21.5366C143.182 21.6778 142.988 21.7484 142.785 21.7484H139.118Z" fill="white"/>
</g>
<defs>
<clipPath id="clip0_1650_767">
<rect width="163.411" height="21.7882" fill="white" transform="translate(0.368408 0.262695)"/>
</clipPath>
</defs>
</svg>
