<svg width="136" height="61" viewBox="0 0 136 61" fill="none" xmlns="http://www.w3.org/2000/svg">
<path d="M7.83181 14.5953C8.38868 13.5584 9.19215 12.6745 10.1718 12.0214L26.6101 0.549805L9.76699 28.3832C9.76699 28.3832 8.29542 25.8979 7.7213 24.6402C7.0062 23.059 6.64548 21.3408 6.66453 19.6056C6.68358 17.8704 7.08205 16.1603 7.83181 14.5953ZM1.04751 33.7956C1.23314 36.4573 1.98562 39.0486 3.25469 41.3961C4.52358 43.7437 6.27985 45.793 8.40574 47.4072L26.5879 60.0775C26.5879 60.0775 15.212 43.6936 5.61701 27.3906C4.64552 25.6682 3.99247 23.785 3.68909 21.8312C3.55481 20.9465 3.55481 20.0466 3.68909 19.1619C3.43886 19.6252 2.9533 20.5738 2.9533 20.5738C1.98036 22.5567 1.3177 24.6772 0.988542 26.8612C0.799107 29.1697 0.818885 31.4905 1.04751 33.7956ZM47.4044 36.0016C46.8156 34.7441 45.3587 32.2586 45.3587 32.2586L28.5452 60.0775L44.9835 48.6131C45.963 47.9601 46.7666 47.0763 47.3235 46.0394C48.0732 44.4742 48.4715 42.7642 48.4908 41.0292C48.5098 39.294 48.1491 37.5755 47.4338 35.9943L47.4044 36.0016ZM54.0782 26.839C53.8926 24.1774 53.1401 21.5859 51.8712 19.2385C50.6021 16.891 48.8459 14.8415 46.72 13.2276L28.5672 0.549805C28.5672 0.549805 39.9357 16.9336 49.5383 33.2366C50.507 34.9596 51.1576 36.8428 51.4588 38.796C51.593 39.6807 51.593 40.5807 51.4588 41.4654C51.709 41.002 52.1946 40.0535 52.1946 40.0535C53.1675 38.0706 53.8302 35.9501 54.1591 33.7661C54.3511 31.4578 54.3339 29.1369 54.1078 26.8317L54.0782 26.839Z" fill="white"/>
<path d="M84.8306 43.502H67.6181V16.1387H84.8306V21.2995H71.5048L73.1705 19.7401V27.2399H83.535V32.1408H73.1705V39.9006L71.5048 38.3412H84.8306V43.502Z" fill="white"/>
<path d="M94.9224 43.502H89.407V16.1387H94.9224L108.544 36.7818H106.879V16.1387H112.357V43.502H106.879L93.2196 22.896H94.9224V43.502Z" fill="white"/>
<path d="M115.968 23.9725C115.968 22.3388 116.388 20.9032 117.227 19.6656C118.09 18.4033 119.262 17.4132 120.743 16.6954C122.248 15.9776 123.964 15.6187 125.888 15.6187C127.813 15.6187 129.467 15.9652 130.849 16.6582C132.255 17.3265 133.341 18.2795 134.106 19.5171C134.896 20.7547 135.29 22.2274 135.29 23.9353H129.775C129.75 22.8957 129.38 22.0789 128.665 21.4849C127.974 20.8908 127.024 20.5938 125.814 20.5938C124.506 20.5938 123.458 20.8785 122.668 21.4477C121.903 22.017 121.52 22.7967 121.52 23.7868C121.52 24.6779 121.755 25.3709 122.224 25.866C122.717 26.3363 123.47 26.6828 124.482 26.9056L128.665 27.7966C131.058 28.2917 132.835 29.1456 133.995 30.3585C135.155 31.5713 135.735 33.2421 135.735 35.3707C135.735 37.1034 135.315 38.6256 134.476 39.9375C133.637 41.2246 132.44 42.2271 130.886 42.9449C129.356 43.6379 127.554 43.9844 125.481 43.9844C123.507 43.9844 121.767 43.6503 120.262 42.982C118.781 42.2889 117.634 41.3236 116.819 40.086C116.005 38.8237 115.586 37.3633 115.561 35.7049H121.113C121.113 36.7445 121.496 37.5613 122.261 38.1553C123.05 38.7246 124.136 39.0093 125.518 39.0093C126.949 39.0093 128.085 38.737 128.924 38.1925C129.763 37.6232 130.182 36.8682 130.182 35.9277C130.182 35.0861 129.972 34.4425 129.553 33.997C129.133 33.5267 128.43 33.1926 127.443 32.9946L123.223 32.1035C120.829 31.6084 119.016 30.6802 117.782 29.3189C116.573 27.9575 115.968 26.1754 115.968 23.9725Z" fill="white"/>
</svg>
