<svg width="176" height="30" viewBox="0 0 176 30" fill="none" xmlns="http://www.w3.org/2000/svg">
<path d="M22.7182 29.613L0 24.2888V5.72551L22.7182 0.386963V29.613Z" fill="#9747FF"/>
<path opacity="0.8" d="M37.2 29.613L14.4818 24.2888V5.72548L37.2 0.386932V29.613Z" fill="#9747FF"/>
<path opacity="0.6" d="M51.6817 29.613L28.9635 24.2888V5.72548L51.6817 0.386932V29.613Z" fill="#9747FF"/>
<path d="M65.6728 0V20.2217H77.3136V23.6807H61.6816V0H65.6728Z" fill="black"/>
<path d="M79.1958 8.71397C80.7036 7.09534 82.7324 6.28603 85.2823 6.28603C87.8322 6.28603 89.8499 7.09534 91.3355 8.71397C92.8433 10.3104 93.5972 12.4834 93.5972 15.2328C93.5972 17.9823 92.8433 20.1663 91.3355 21.7849C89.8499 23.3814 87.8322 24.1796 85.2823 24.1796C82.7324 24.1796 80.7036 23.3814 79.1958 21.7849C77.6881 20.1663 76.9342 17.9823 76.9342 15.2328C76.9342 12.4834 77.6881 10.3104 79.1958 8.71397ZM88.4752 10.8758C87.6992 9.81153 86.6349 9.27938 85.2823 9.27938C83.9298 9.27938 82.8655 9.81153 82.0894 10.8758C81.3134 11.9401 80.9253 13.3925 80.9253 15.2328C80.9253 17.0732 81.3134 18.5255 82.0894 19.5898C82.8655 20.6541 83.9298 21.1863 85.2823 21.1863C86.6349 21.1863 87.6992 20.6541 88.4752 19.5898C89.2513 18.5255 89.6393 17.0732 89.6393 15.2328C89.6393 13.3925 89.2513 11.9401 88.4752 10.8758Z" fill="black"/>
<path d="M101.95 6.28603C104.212 6.28603 105.93 6.84035 107.105 7.949C108.303 9.05765 108.901 10.7095 108.901 12.9047V19.2239C108.901 21.0421 109.046 22.5277 109.334 23.6807H105.908C105.753 22.9933 105.675 22.2062 105.675 21.3193H105.609C104.367 23.1375 102.471 24.0466 99.9214 24.0466C98.1919 24.0466 96.8061 23.5809 95.764 22.6497C94.7218 21.6962 94.2008 20.4878 94.2008 19.0244C94.2008 17.5831 94.6886 16.4302 95.6642 15.5654C96.662 14.7007 98.336 14.0798 100.686 13.7029C102.105 13.459 103.624 13.2927 105.243 13.204V12.5388C105.243 10.2106 104.145 9.04656 101.95 9.04656C100.93 9.04656 100.132 9.31264 99.5555 9.84479C98.979 10.3769 98.6686 11.0976 98.6243 12.0067H94.8992C94.9879 10.3215 95.6309 8.94678 96.8283 7.88248C98.0478 6.81818 99.7551 6.28603 101.95 6.28603ZM105.243 16.4967V15.6652C103.802 15.7539 102.505 15.898 101.352 16.0976C100.132 16.2971 99.2673 16.5965 98.7573 16.9956C98.2695 17.3947 98.0256 17.9823 98.0256 18.7583C98.0256 19.5122 98.2806 20.1219 98.7906 20.5876C99.3227 21.031 100.066 21.2528 101.019 21.2528C102.305 21.2528 103.325 20.8758 104.079 20.1219C104.522 19.6563 104.822 19.1685 104.977 18.6585C105.154 18.1264 105.243 17.4058 105.243 16.4967Z" fill="black"/>
<path d="M120.611 6.38581C122.562 6.38581 124.07 6.97339 125.134 8.14856C126.221 9.32372 126.764 11.0532 126.764 13.337V23.6807H122.972V13.6696C122.972 10.8537 121.83 9.44567 119.547 9.44567C118.416 9.44567 117.484 9.86696 116.753 10.7095C116.043 11.5521 115.688 12.7494 115.688 14.3016V23.6807H111.897V6.78492H115.489V8.98004H115.555C116.753 7.25055 118.438 6.38581 120.611 6.38581Z" fill="black"/>
<path d="M139.215 6.78492H143.139L136.621 24.4124C135.822 26.541 134.88 28.0044 133.794 28.8027C132.729 29.6009 131.21 30 129.237 30C128.55 30 127.918 29.9224 127.341 29.7672V26.6741C127.851 26.8293 128.383 26.9069 128.938 26.9069C129.958 26.9069 130.734 26.6851 131.266 26.2417C131.82 25.7982 132.297 24.9889 132.696 23.8137L126.51 6.78492H130.567L134.791 19.357H134.858L139.215 6.78492Z" fill="black"/>
<path d="M150.57 21.3858C151.634 21.3858 152.499 21.1308 153.164 20.6208C153.851 20.1109 154.283 19.4346 154.461 18.592H158.352C158.02 20.1885 157.166 21.5188 155.791 22.5831C154.417 23.6474 152.676 24.1796 150.57 24.1796C148.02 24.1796 146.013 23.3481 144.55 21.6851C143.108 20.0222 142.388 17.8049 142.388 15.0333C142.388 12.4834 143.108 10.388 144.55 8.74723C146.013 7.10643 147.997 6.28603 150.503 6.28603C152.41 6.28603 154.029 6.80709 155.359 7.84922C156.711 8.86918 157.621 10.2661 158.086 12.0399C158.397 13.0377 158.552 14.357 158.552 15.9978H146.146C146.213 17.816 146.645 19.1685 147.443 20.0554C148.264 20.9423 149.306 21.3858 150.57 21.3858ZM153.397 10.2106C152.643 9.45676 151.678 9.07982 150.503 9.07982C149.328 9.07982 148.352 9.45676 147.576 10.2106C146.822 10.9645 146.368 12.0621 146.213 13.5033H154.76C154.627 12.0621 154.173 10.9645 153.397 10.2106Z" fill="black"/>
<path d="M167.907 21.3858C168.972 21.3858 169.836 21.1308 170.502 20.6208C171.189 20.1109 171.621 19.4346 171.799 18.592H175.69C175.357 20.1885 174.504 21.5188 173.129 22.5831C171.754 23.6474 170.014 24.1796 167.907 24.1796C165.357 24.1796 163.351 23.3481 161.887 21.6851C160.446 20.0222 159.725 17.8049 159.725 15.0333C159.725 12.4834 160.446 10.388 161.887 8.74723C163.351 7.10643 165.335 6.28603 167.841 6.28603C169.748 6.28603 171.366 6.80709 172.697 7.84922C174.049 8.86918 174.958 10.2661 175.424 12.0399C175.734 13.0377 175.89 14.357 175.89 15.9978H163.484C163.55 17.816 163.983 19.1685 164.781 20.0554C165.601 20.9423 166.643 21.3858 167.907 21.3858ZM170.734 10.2106C169.98 9.45676 169.016 9.07982 167.841 9.07982C166.666 9.07982 165.69 9.45676 164.914 10.2106C164.16 10.9645 163.706 12.0621 163.55 13.5033H172.098C171.965 12.0621 171.51 10.9645 170.734 10.2106Z" fill="black"/>
</svg>
