<svg width="173" height="30" viewBox="0 0 173 30" fill="none" xmlns="http://www.w3.org/2000/svg">
<path fill-rule="evenodd" clip-rule="evenodd" d="M0 0H0.838642V25H0V0ZM4.90997 0H6.08407V25H4.90997V0ZM11.3597 0H9.8349V25H11.3597V0ZM14.7448 0H16.6203V25H14.7448V0ZM21.8962 0H19.67V25H21.8962V0ZM24.5798 0H27.1567V25H24.5798V0ZM32.4325 0H29.5049V25H32.4325V0ZM34.4149 0H37.6932V25H34.4149V0ZM42.9538 0H39.3248V25H42.9538V0ZM44.2499 0H48.2296V25H44.2499V0Z" fill="#A95BFF"/>
<path d="M62.2207 0V20.2217H73.8615V23.6807H58.2296V0H62.2207Z" fill="black"/>
<path d="M75.7438 8.71397C77.2515 7.09534 79.2803 6.28603 81.8302 6.28603C84.3801 6.28603 86.3979 7.09534 87.8834 8.71397C89.3912 10.3104 90.1451 12.4834 90.1451 15.2328C90.1451 17.9823 89.3912 20.1663 87.8834 21.7849C86.3979 23.3814 84.3801 24.1796 81.8302 24.1796C79.2803 24.1796 77.2515 23.3814 75.7438 21.7849C74.236 20.1663 73.4821 17.9823 73.4821 15.2328C73.4821 12.4834 74.236 10.3104 75.7438 8.71397ZM85.0231 10.8758C84.2471 9.81153 83.1828 9.27938 81.8302 9.27938C80.4777 9.27938 79.4134 9.81153 78.6373 10.8758C77.8613 11.9401 77.4732 13.3925 77.4732 15.2328C77.4732 17.0732 77.8613 18.5255 78.6373 19.5898C79.4134 20.6541 80.4777 21.1863 81.8302 21.1863C83.1828 21.1863 84.2471 20.6541 85.0231 19.5898C85.7992 18.5255 86.1872 17.0732 86.1872 15.2328C86.1872 13.3925 85.7992 11.9401 85.0231 10.8758Z" fill="black"/>
<path d="M98.4981 6.28603C100.76 6.28603 102.478 6.84035 103.653 7.949C104.851 9.05765 105.449 10.7095 105.449 12.9047V19.2239C105.449 21.0421 105.593 22.5277 105.882 23.6807H102.456C102.301 22.9933 102.223 22.2062 102.223 21.3193H102.157C100.915 23.1375 99.0192 24.0466 96.4693 24.0466C94.7398 24.0466 93.354 23.5809 92.3119 22.6497C91.2698 21.6962 90.7487 20.4878 90.7487 19.0244C90.7487 17.5831 91.2365 16.4302 92.2121 15.5654C93.2099 14.7007 94.8839 14.0798 97.2343 13.7029C98.6533 13.459 100.172 13.2927 101.791 13.204V12.5388C101.791 10.2106 100.693 9.04656 98.4981 9.04656C97.4782 9.04656 96.68 9.31264 96.1035 9.84479C95.527 10.3769 95.2165 11.0976 95.1722 12.0067H91.4471C91.5358 10.3215 92.1788 8.94678 93.3762 7.88248C94.5957 6.81818 96.303 6.28603 98.4981 6.28603ZM101.791 16.4967V15.6652C100.35 15.7539 99.0525 15.898 97.8995 16.0976C96.68 16.2971 95.8152 16.5965 95.3052 16.9956C94.8174 17.3947 94.5735 17.9823 94.5735 18.7583C94.5735 19.5122 94.8285 20.122 95.3385 20.5876C95.8706 21.031 96.6134 21.2528 97.5669 21.2528C98.8529 21.2528 99.8729 20.8758 100.627 20.1219C101.07 19.6563 101.37 19.1685 101.525 18.6585C101.702 18.1264 101.791 17.4058 101.791 16.4967Z" fill="black"/>
<path d="M117.159 6.38581C119.11 6.38581 120.618 6.97339 121.682 8.14856C122.769 9.32372 123.312 11.0532 123.312 13.337V23.6807H119.52V13.6696C119.52 10.8537 118.378 9.44567 116.094 9.44567C114.964 9.44567 114.032 9.86696 113.301 10.7095C112.591 11.5521 112.236 12.7494 112.236 14.3016V23.6807H108.445V6.78492H112.037V8.98004H112.103C113.301 7.25055 114.986 6.38581 117.159 6.38581Z" fill="black"/>
<path d="M135.763 6.78492H139.687L133.168 24.4124C132.37 26.541 131.428 28.0044 130.341 28.8027C129.277 29.6009 127.758 30 125.785 30C125.098 30 124.466 29.9224 123.889 29.7672V26.6741C124.399 26.8293 124.931 26.9069 125.486 26.9069C126.506 26.9069 127.282 26.6851 127.814 26.2417C128.368 25.7982 128.845 24.9889 129.244 23.8137L123.058 6.78492H127.115L131.339 19.357H131.406L135.763 6.78492Z" fill="black"/>
<path d="M147.117 21.3858C148.182 21.3858 149.046 21.1308 149.712 20.6208C150.399 20.1109 150.831 19.4346 151.009 18.592H154.9C154.568 20.1885 153.714 21.5188 152.339 22.5831C150.964 23.6474 149.224 24.1796 147.117 24.1796C144.568 24.1796 142.561 23.3481 141.097 21.6851C139.656 20.0222 138.936 17.8049 138.936 15.0333C138.936 12.4834 139.656 10.388 141.097 8.74723C142.561 7.10643 144.545 6.28603 147.051 6.28603C148.958 6.28603 150.576 6.80709 151.907 7.84922C153.259 8.86918 154.168 10.2661 154.634 12.0399C154.944 13.0377 155.1 14.357 155.1 15.9978H142.694C142.76 17.816 143.193 19.1685 143.991 20.0554C144.811 20.9423 145.854 21.3858 147.117 21.3858ZM149.944 10.2106C149.191 9.45676 148.226 9.07982 147.051 9.07982C145.876 9.07982 144.9 9.45676 144.124 10.2106C143.37 10.9645 142.916 12.0621 142.76 13.5033H151.308C151.175 12.0621 150.721 10.9645 149.944 10.2106Z" fill="black"/>
<path d="M164.455 21.3858C165.52 21.3858 166.384 21.1308 167.049 20.6208C167.737 20.1109 168.169 19.4346 168.347 18.592H172.238C171.905 20.1885 171.052 21.5188 169.677 22.5831C168.302 23.6474 166.562 24.1796 164.455 24.1796C161.905 24.1796 159.899 23.3481 158.435 21.6851C156.994 20.0222 156.273 17.8049 156.273 15.0333C156.273 12.4834 156.994 10.388 158.435 8.74723C159.899 7.10643 161.883 6.28603 164.389 6.28603C166.296 6.28603 167.914 6.80709 169.245 7.84922C170.597 8.86918 171.506 10.2661 171.972 12.0399C172.282 13.0377 172.437 14.357 172.437 15.9978H160.032C160.098 17.816 160.531 19.1685 161.329 20.0554C162.149 20.9423 163.191 21.3858 164.455 21.3858ZM167.282 10.2106C166.528 9.45676 165.564 9.07982 164.389 9.07982C163.214 9.07982 162.238 9.45676 161.462 10.2106C160.708 10.9645 160.253 12.0621 160.098 13.5033H168.646C168.513 12.0621 168.058 10.9645 167.282 10.2106Z" fill="black"/>
</svg>
